<svg xmlns:dc="http://purl.org/dc/elements/1.1/" 
    xmlns:cc="http://creativecommons.org/ns#" 
    xmlns:rdf="http://www.w3.org/1999/02/22-rdf-syntax-ns#" 
    xmlns:svg="http://www.w3.org/2000/svg" 
    xmlns="http://www.w3.org/2000/svg" 
    xmlns:sodipodi="http://sodipodi.sourceforge.net/DTD/sodipodi-0.dtd" 
    xmlns:inkscape="http://www.inkscape.org/namespaces/inkscape" x="0px" y="0px" overflow="inherit" viewBox="0 0 24 30" preserveAspectRatio="xMidYMid" font-size="0px" xml:space="default" dc="http://purl.org/dc/elements/1.1/" cc="http://creativecommons.org/ns#" rdf="http://www.w3.org/1999/02/22-rdf-syntax-ns#" svg="http://www.w3.org/2000/svg" sodipodi="http://sodipodi.sourceforge.net/DTD/sodipodi-0.dtd" inkscape="http://www.inkscape.org/namespaces/inkscape" docname="code ui web window interface html.svg" version="1.1" style="">
    <path style="" d="M 4.876953,0 C 2.175136,0 0,2.020466 0,4.529297 L 0,19.470703 C 0,21.979534 2.175136,24 4.876953,24 l 14.246094,0 C 21.824864,24 24,21.979534 24,19.470703 L 24,4.529297 C 24,2.020466 21.824864,0 19.123047,0 L 4.876953,0 Z M 5.5,7.498047 l 13,0 0,9.001953 -13,0 0,-9.001953 z m 1,0.994141 0,0.5 0,4.507812 6,0 0,-5.007812 -6,0 z m 7,0 0,1 4,0 0,-1 -4,0 z m -6,1 4,0 0,3.007812 -4,0 0,-3.007812 z m 6,1 0,1 4,0 0,-1 -4,0 z m 0,2 0,0.5 0,2.5 4,0 0,-3 -4,0 z m 1,1 2,0 0,1 -2,0 0,-1 z m -7.996094,1 0,1 5.996094,0 0,-1 -5.996094,0 z"  fill="#c5bafb" />
    <namedview xml:space="default" pagecolor="#ffffff" bordercolor="#666666" borderopacity="1.0" pageopacity="0.0" pageshadow="2" zoom="4" cx="-31.169737" cy="5.0204478" document-units="px" current-layer="layer1" showgrid="true" units="px" window-width="1366" window-height="715" window-x="-8" window-y="-8" window-maximized="1">
        <grid opacity="0.1254902" color="#0000FF" xml:space="default" type="xygrid" empcolor="#3f0000" empopacity="0.25098039"/>
    </namedview>
  
</svg>