<svg xmlns="http://www.w3.org/2000/svg" xmlns:xlink="http://www.w3.org/1999/xlink" version="1.1" x="0px" y="0px" viewBox="0 0 100 125" style="enable-background:new 0 0 100 100;" xml:space="preserve"><style type="text/css">
	.st0{fill:#c5bafb;}
	.st1{display:inline;}
	.st2{display:inline;fill:#00000C;}
	.st3{display:inline;fill:#FFFFFF;}
	.st4{fill:#FFFFFF;}
</style><g  fill="#c5bafb"><path d="M68,90.7v-12h11.8L68,90.7z M50,29.5c-1.3,0-2.4,0.5-3.2,1.5c-0.8,1-1.3,2.3-1.3,3.8c0,1.3,0.3,2.5,1,3.3   c0.7,0.9,1.5,1.3,2.6,1.3c1.4,0,2.6-0.6,3.6-1.7c1-1.2,1.6-2.5,1.6-4c0-1.2-0.4-2.2-1.2-3C52.2,29.9,51.2,29.5,50,29.5z M81.4,8   v68.2H65.5V92H18.6V8H81.4z M34.6,34.1c0,2.4,0.6,4.8,1.7,7.1c1.1,2.2,2.7,4,4.7,5.5c2.7,2,6.1,2.9,10.2,2.9   c3.7,0,7.2-0.8,10.6-2.4l0.2-0.1l-1-2.8l-0.3,0.2c-3.3,1.5-6.5,2.3-9.5,2.3c-3.2,0-5.9-0.8-8.1-2.3c-1.6-1.2-2.9-2.6-3.7-4.4   C38.4,38,37.9,36,37.9,34c0-3.6,1.2-6.6,3.7-9.1c2.5-2.5,5.5-3.7,9.1-3.7c3.4,0,6.3,1,8.5,3.1c2.2,2,3.3,4.6,3.3,7.8   c0,2-0.5,3.8-1.4,5.4c-0.9,1.6-1.9,2.4-3.1,2.4c-0.8,0-1.2-0.5-1.2-1.5c0-0.3,0-0.6,0-1c0-0.3,0.1-0.7,0.1-1.1l1.2-10.2h-2.9   L55,28.4c-1.3-1.7-3.1-2.5-5.3-2.5c-2.4,0-4.3,0.8-5.9,2.5c-1.6,1.6-2.3,3.7-2.3,6.3c0,2.4,0.7,4.3,2.1,5.8   c1.4,1.5,3.2,2.3,5.3,2.3c2,0,3.7-0.8,5.3-2.4c0.6,1.6,1.7,2.3,3.4,2.3c2.1,0,3.9-1.1,5.4-3.2c1.5-2.1,2.3-4.6,2.3-7.6   c0-3.8-1.4-7-4.2-9.5c-2.8-2.6-6.3-3.8-10.5-3.8c-4.5,0-8.4,1.5-11.4,4.5C36.1,26,34.6,29.7,34.6,34.1z M65.4,68.1H34.6v2.6h30.8   V68.1z M65.4,61.7H34.6v2.6h30.8V61.7z M65.4,55.3H34.6v2.6h30.8V55.3z"/></g></svg>