<svg xmlns="http://www.w3.org/2000/svg" xmlns:xlink="http://www.w3.org/1999/xlink" 
viewBox="0 0 41 43.75" version="1.1" x="0px" y="0px"><g stroke="#c5cffc" stroke-width="1" fill="#c5cffc" fill-rule="evenodd">
<path d="M23.0617352,30.9242729 L17.3950005,30.9242729 L0.717156439,30.9242729 C0.717156439,30.9242729 0.165822753,29.3988603 0.0279893311,28.1507955 C-0.247677512,25.6546658 1.54415697,24.406601 4.02515856,23.4358839 C6.91966041,22.326493 10.6411628,20.1077111 12.4329973,19.4143417 L12.7086641,17.3342337 C11.6059967,16.0861688 11.4681633,15.1154518 11.0546631,13.1740176 C10.6411628,12.8966698 10.365496,12.6193221 10.2276625,12.2033005 L9.67632885,9.01380151 C9.67632885,8.5977799 9.95199569,8.18175829 10.2276625,7.90441055 C10.2276625,3.05082513 12.1573304,0 17.3950005,0 C22.6326705,0 24.5623384,3.05082513 24.5623384,7.90441055 C24.9758386,8.18175829 25.2515055,8.5977799 25.1136721,9.01380151 L24.5623384,12.2033005 C24.424505,12.6193221 24.1488381,13.0353437 23.7353379,13.1740176 C23.1840042,14.9767779 23.0461707,16.0861688 22.0813368,17.3342337 L22.3570036,19.4143417 C23.245426,19.7581261 24.6421118,20.4769099 26.1606523,21.2495392 C24.1522003,22.0208187 21.9911069,23.1100059 21.8306425,26.4255062 C21.745762,28.2261903 22.2206704,29.722033 23.0617352,30.9242729 Z M33.5684466,33.9942495 C28.9480455,34.6804609 22.9175219,32.3831444 23.1875454,26.6547706 C23.4575688,21.0755732 30.0281393,22.5076667 30.2081549,19.7031503 C30.2981627,18.3307274 29.3980846,17.435669 27.9879621,15.8245639 C27.4779179,15.2576936 38.9989181,17.7638571 40.7390692,24.8049832 C41.969176,29.8173103 38.7288947,33.2185322 33.5684466,33.9942495 Z M31.605,24.654 L33.255,24.654 L33.255,30 L31.605,30 L31.605,24.654 Z M31.473,22.971 C31.473,22.7069987 31.5664991,22.4815009 31.7535,22.2945 C31.9405009,22.1074991 32.1659987,22.014 32.43,22.014 C32.6940013,22.014 32.9194991,22.1074991 33.1065,22.2945 C33.2935009,22.4815009 33.387,22.7069987 33.387,22.971 C33.387,23.2350013 33.2935009,23.4604991 33.1065,23.6475 C32.9194991,23.8345009 32.6940013,23.928 32.43,23.928 C32.1659987,23.928 31.9405009,23.8345009 31.7535,23.6475 C31.5664991,23.4604991 31.473,23.2350013 31.473,22.971 L31.473,22.971 Z"
 fill="#c5bafb"/></g></svg>