<svg xmlns="http://www.w3.org/2000/svg" 
    xmlns:xlink="http://www.w3.org/1999/xlink" version="1.1" x="0px" y="0px" viewBox="0 0 100 125"
     enable-background="new 0 0 100 100" xml:space="preserve">
    <g stroke="#c5cffc" stroke-width="1" fill="#c5cffc" fill-rule="evenodd" display="none">
        <path  display="inline" fill="#c5bafb" d="M1036,687.403H-280c-1.65,0-3-1.35-3-3V-629.993c0-1.65,1.35-3,3-3h1316   c1.65,0,3,1.35,3,3V684.403C1039,686.053,1037.65,687.403,1036,687.403z"/>
    </g>
    <g stroke="#c5cffc" stroke-width="1" fill="#c5cffc" fill-rule="evenodd">
        <path fill="#c5bafb" d="M28.626,53.423c0-5.212-4.24-9.452-9.452-9.452c-5.212,0-9.452,4.24-9.452,9.452c0,5.212,4.24,9.452,9.452,9.452   C24.385,62.876,28.626,58.635,28.626,53.423z"/>
        <path fill="#c5bafb" d="M4.968,77.908V95h46.223l8.633-18.213H33.418l-4.914,13.6H21.63h-7.906v-1.609v0V87.17h12.522l4.914-13.6h1.208   c-1.638-3.355-5.051-5.567-8.905-5.567h-8.579C9.416,68.003,4.968,72.446,4.968,77.908z"/>
        <path fill="#c5bafb" d="M68.215,5C53.428,5,41.399,16.227,41.399,30.027c0,5.157,1.686,10.122,4.877,14.359c0.312,0.413,0.393,0.957,0.216,1.443   l-4.08,11.217l12.635-4.459c0.419-0.259,0.944-0.31,1.407-0.097c3.722,1.701,7.678,2.563,11.76,2.563   c14.787,0,26.818-11.227,26.818-25.026C95.032,16.227,83.002,5,68.215,5z M53.838,33.688c-2.04,0-3.694-1.654-3.694-3.694   s1.654-3.694,3.694-3.694c2.04,0,3.694,1.654,3.694,3.694S55.878,33.688,53.838,33.688z M68.215,33.688   c-2.04,0-3.694-1.654-3.694-3.694s1.654-3.694,3.694-3.694s3.694,1.654,3.694,3.694S70.255,33.688,68.215,33.688z M82.593,33.688   c-2.04,0-3.694-1.654-3.694-3.694s1.654-3.694,3.694-3.694c2.04,0,3.694,1.654,3.694,3.694S84.633,33.688,82.593,33.688z"/>
    </g>
    
</svg>