<svg height="512pt" viewBox="-1 0 512 512" width="512pt" xmlns="http://www.w3.org/2000/svg"><path d="m407.292969 464.496094h15.144531v15.972656h-15.144531zm0 0"/><path d="m375.347656 464.496094h15.144532v15.972656h-15.144532zm0 0"/><path d="m343.402344 464.496094h15.144531v15.972656h-15.144531zm0 0"/><path d="m430.421875 124.375v-74.742188h-105.382813l-69.894531-49.632812-69.898437 49.632812h-41.910156v15.144532h271.941406v167.597656l-40.46875 26.105469 8.210937 12.726562 112.121094-72.324219v287.261719l-138.808594-138.808593-10.710937 10.710937 138.808594 138.804687h-285.191407v15.148438h311.046875v-330.929688zm-175.277344-105.800781 43.734375 31.054687h-87.472656zm175.277344 124.375 58.785156 41.734375-58.785156 37.917968zm0 0"/><path d="m164.664062 358.046875-10.710937-10.710937-138.808594 138.808593v-287.261719l240 154.835938 107.921875-69.636719-8.210937-12.730469-99.714844 64.339844-160.132813-103.324218v-167.589844h24.371094v-15.144532h-39.519531v74.738282l-79.859375 56.699218v330.929688h175.28125v-15.144531h-149.425781zm-84.804687-135.449219-58.78125-37.914062 58.78125-41.738282zm0 0"/><path d="m191.667969 232.898438c0 13.667968 6.589843 39.519531 31.53125 39.519531h63.886719c24.941406 0 31.535156-25.851563 31.535156-39.519531 0-25.808594-15.496094-48.054688-37.660156-57.96875 8.382812-7.25 13.699218-17.953126 13.699218-29.878907 0-21.789062-17.726562-39.519531-39.515625-39.519531-21.792969 0-39.519531 17.730469-39.519531 39.519531 0 11.929688 5.316406 22.628907 13.699219 29.882813-22.164063 9.910156-37.65625 32.15625-37.65625 57.964844zm63.476562-48.328126c4.183594 0 8.242188.535157 12.121094 1.539063l-12.121094 12.121094-12.121093-12.121094c3.871093-1.003906 7.933593-1.539063 12.121093-1.539063zm-24.375-39.519531c0-13.4375 10.933594-24.371093 24.375-24.371093 13.4375 0 24.371094 10.933593 24.371094 24.371093 0 13.441407-10.933594 24.371094-24.371094 24.371094-13.441406 0-24.375-10.933594-24.375-24.371094zm-2.515625 47.710938 26.886719 26.890625 26.890625-26.890625c12.921875 8.683593 21.441406 23.433593 21.441406 40.136719 0 .066406-.070312 6.796874-2.511718 13.316406-3.71875 9.910156-9.699219 11.054687-13.875 11.054687h-63.886719c-4.121094 0-10.027344-1.113281-13.757813-10.757812-2.558594-6.605469-2.628906-13.566407-2.628906-13.609375 0-16.707032 8.519531-31.457032 21.441406-40.140625zm0 0"/><path d="m383.332031 81.164062h15.148438v15.96875h-15.148438zm0 0"/><path d="m351.390625 81.164062h15.144531v15.96875h-15.144531zm0 0"/><path d="m126.953125 153.039062h-15.148437v-71.460937h39.519531v15.144531h-24.371094zm0 0"/></svg>