<svg height="498pt" viewBox="0 -1 498.472 498" width="498pt" xmlns="http://www.w3.org/2000/svg">
<path d="m304 152.234375h40v64h-40zm0 0" fill="#f03e40"/>
<path d="m96 328.234375v-32c0-8.839844 7.160156-16 16-16h144v-64h-152c-17.671875 0-32-14.328125-32-32s14.328125-32 32-32h152v-56h-224v304h224v-56h-144c-8.839844 0-16-7.160156-16-16zm0 0" fill="#f03e40"/>
<path d="m112 184.234375c0 4.417969-3.582031 8-8 8s-8-3.582031-8-8 3.582031-8 8-8 8 3.582031 8 8zm0 0"/>
<path d="m112 32.234375h64v16h-64zm0 0"  fill="#f03e40"/><path d="m192 32.234375h16v16h-16zm0 0"  fill="#f03e40"/>
<path d="m80 32.234375h16v16h-16zm0 0"  fill="#f03e40"/><path d="m120 448.234375h48v16h-48zm0 0"  fill="#f03e40"/>
<path d="m352 224.234375v-16h35.96875c7.808594 18.769531 26.320312 32 47.886719 32 9.410156 0 18.632812-2.550781 26.679687-7.390625l35.089844-21.054688-2.03125-6.089843c-.25-.765625-4.355469-12.527344-16.953125-20.960938 10.792969-9.636719 16.222656-20.34375 16.519531-20.925781l3.3125-6.625-35.9375-21.558594c-8.046875-4.839844-17.277344-7.394531-26.6875-7.394531-21.558594 0-40.078125 13.234375-47.886718 32h-35.960938v-16h-64v-104c0-22.054687-17.945312-40-40-40h-208c-22.054688 0-40 17.945313-40 40v416c0 22.058594 17.945312 40 40 40h208c22.054688 0 40-17.941406 40-40v-104h138.128906l70-40-70-40h-138.128906v-48zm48-44.148437c0-19.761719 16.089844-35.851563 35.847656-35.851563 6.503906 0 12.878906 1.769531 18.449219 5.113281l22.566406 13.535156c-3.199219 4.410157-8.3125 10.304688-15.191406 14.769532-4.085937-.90625-8.625-1.417969-13.671875-1.417969v16c16.648438 0 25.273438 7.609375 29.320312 13.082031l-23.023437 13.816406c-5.5625 3.335938-11.9375 5.101563-18.449219 5.101563-19.757812 0-35.847656-16.085937-35.847656-35.847656zm-15.808594-3.851563c-.085937 1.28125-.191406 2.554687-.191406 3.851563v8.292968c0 1.304688.105469 2.578125.191406 3.847656h-32.191406v-16h32.191406zm-48.191406 32h-232c-13.230469 0-24-10.765625-24-24 0-13.230469 10.769531-24 24-24h232zm-296-192h208c13.230469 0 24 10.769531 24 24v24h-256v-24c0-13.230469 10.769531-24 24-24zm208 464h-208c-13.230469 0-24-10.765625-24-24v-24h256v24c0 13.234375-10.769531 24-24 24zm-136-144c-4.414062 0-8-3.582031-8-8v-32c0-4.414063 3.585938-8 8-8h40v48zm56-48h16v48h-16zm248 16h-216v-16h216zm-216 16h216v16h-216zm232 10.21875v-36.433594l31.871094 18.214844zm-160-58.21875h-160c-13.230469 0-24 10.769531-24 24v32c0 13.234375 10.769531 24 24 24h160v64h-256v-336h256v64h-168c-22.054688 0-40 17.945313-40 40 0 22.058594 17.945312 40 40 40h168zm0 0" fill="#343a40"/></svg>
